<?xml version="1.0" encoding="utf-8"?>
<!DOCTYPE svg [
	<!ENTITY ns_flows "http://ns.adobe.com/Flows/1.0/">
]>
<svg version="1.1" baseProfile="full" xmlns="http://www.w3.org/2000/svg" xmlns:xlink="http://www.w3.org/1999/xlink"
	x="0px" y="0px" width="485px" height="79px" viewBox="0 0 485 79" enable-background="new 0 0 485 79" xml:space="preserve">

<g id="svg-text-shadow" fill="#ffffff" fill-opacity="0.5">
	<path d="M136.488,53.647c-2.537,1.548-6.837,2.365-10.75,2.365c-10.707,0-15.093-6.235-15.093-16.211
		c0-9.159,5.289-15.996,15.996-15.996c3.569,0,7.396,0.903,9.761,2.451v8.428l-4.73-0.387l-0.688-4.214
		c-0.086-0.43-0.258-0.645-0.688-0.774c-0.946-0.301-2.408-0.516-3.827-0.516c-5.461,0-8.944,3.698-8.944,11.008
		c0,7.611,3.311,11.309,8.643,11.309c1.419,0,3.182-0.215,4.3-0.559c0.516-0.129,0.645-0.258,0.774-0.903l0.645-3.999h4.601V53.647z"/>
	<path d="M138.926,55.497v-3.483l1.935-0.258c0.602-0.086,0.688-0.215,0.688-0.86V38.297
		c0-0.473-0.129-0.774-0.559-0.903l-2.322-0.817l0.473-3.483h7.568l0.516,3.44h0.258c1.419-2.193,3.311-3.87,6.063-3.87
		c0.989,0,2.967,0.172,3.741,0.387v7.826l-5.16-0.172l-0.43-2.279c-0.086-0.387-0.215-0.473-0.559-0.473
		c-1.118,0-2.451,0.946-3.096,1.505v11.395c0,0.688,0.043,0.817,0.688,0.86l4.257,0.344v3.44H138.926z"/>
	<path d="M158.981,44.446c0-7.138,3.741-11.782,11.61-11.782c7.955,0,11.051,4.73,11.051,11.309
		c0,7.31-3.698,12.04-11.61,12.04C162.163,56.013,158.981,51.197,158.981,44.446z M174.848,44.188c0-5.074-1.548-6.88-4.343-6.88
		c-2.838,0-4.729,1.763-4.729,6.923c0,5.203,1.677,7.267,4.558,7.267C173.127,51.498,174.848,49.562,174.848,44.188z"/>
	<path d="M186.888,64.612v-3.483l3.354-0.387c0.559-0.043,0.817-0.344,1.075-0.946l1.849-4.085l-8.213-17.974
		c-0.172-0.516-0.387-0.602-0.903-0.731l-1.763-0.43l0.688-3.483h11.395v3.483l-2.709,0.344l4.773,11.352h0.301l4.558-11.352
		l-2.795-0.344l0.559-3.483h9.589v3.483l-1.376,0.258c-0.516,0.086-0.86,0.215-1.075,0.731l-9.46,23.134l4.472,0.473v3.44H186.888z"/>
	<path d="M225.625,55.497l-0.43-2.408l-0.301-0.043c-1.806,1.763-3.913,2.967-7.052,2.967
		c-5.074,0-8.342-3.225-8.342-11.438c0-8.643,4.343-11.911,9.116-11.911c2.494,0,4.429,0.86,6.063,2.064v-6.536
		c0-0.43-0.172-0.731-0.559-0.86l-2.365-0.817l0.473-3.483h8.643v27.949c0,0.645,0.043,0.731,0.688,0.817l2.064,0.301v3.397H225.625z
		 M224.421,38.942c-1.075-0.731-2.451-1.29-3.698-1.29c-3.182,0-4.429,2.967-4.429,6.794c0,4.171,1.204,6.493,3.913,6.493
		c1.462,0,3.053-0.86,4.214-1.849V38.942z"/>
	<path d="M234.514,44.446c0-7.138,3.741-11.782,11.61-11.782c7.955,0,11.051,4.73,11.051,11.309
		c0,7.31-3.698,12.04-11.61,12.04C237.695,56.013,234.514,51.197,234.514,44.446z M250.38,44.188c0-5.074-1.548-6.88-4.343-6.88
		c-2.838,0-4.729,1.763-4.729,6.923c0,5.203,1.677,7.267,4.558,7.267C248.66,51.498,250.38,49.562,250.38,44.188z"/>
	<path d="M274.478,55.497V41.608c0-2.064-0.129-3.784-2.279-3.784c-1.591,0-3.569,0.903-4.472,1.591v11.523
		c0,0.688,0.043,0.774,0.688,0.86l2.064,0.301v3.397h-11.868v-3.44l1.935-0.258c0.602-0.086,0.688-0.215,0.688-0.86V38.297
		c0-0.473-0.129-0.774-0.559-0.903l-2.322-0.817l0.516-3.483h7.525l0.344,2.236l0.172,0.086c2.15-1.591,4.644-2.752,7.568-2.752
		c4.687,0,6.493,2.58,6.493,7.31v10.965c0,0.688,0.043,0.774,0.688,0.86l2.15,0.301v3.397H274.478z"/>
	<path d="M310.648,53.647c-2.537,1.548-6.837,2.365-10.75,2.365c-10.707,0-15.093-6.235-15.093-16.211
		c0-9.159,5.289-15.996,15.996-15.996c3.569,0,7.396,0.903,9.761,2.451v8.428l-4.73-0.387l-0.688-4.214
		c-0.086-0.43-0.258-0.645-0.688-0.774c-0.945-0.301-2.408-0.516-3.827-0.516c-5.461,0-8.944,3.698-8.944,11.008
		c0,7.611,3.311,11.309,8.643,11.309c1.419,0,3.183-0.215,4.3-0.559c0.517-0.129,0.646-0.258,0.774-0.903l0.645-3.999h4.602V53.647z"/>
	<path d="M313.087,55.497v-3.483l1.935-0.258c0.603-0.086,0.688-0.215,0.688-0.86V38.297
		c0-0.473-0.129-0.774-0.56-0.903l-2.321-0.817l0.473-3.483h7.567l0.517,3.44h0.258c1.419-2.193,3.311-3.87,6.062-3.87
		c0.989,0,2.968,0.172,3.741,0.387v7.826l-5.16-0.172l-0.43-2.279c-0.086-0.387-0.215-0.473-0.559-0.473
		c-1.118,0-2.451,0.946-3.097,1.505v11.395c0,0.688,0.043,0.817,0.688,0.86l4.257,0.344v3.44H313.087z"/>
	<path d="M353.118,53.82c-2.666,1.29-5.59,2.193-8.814,2.193c-8.299,0-11.137-5.16-11.137-11.868
		c0-7.783,4.772-11.481,10.664-11.481c5.676,0,9.459,2.967,9.459,10.406c0,0.516-0.043,2.021-0.086,2.881h-13.157
		c0.215,3.053,1.548,5.074,5.074,5.074c1.677,0,3.482-0.387,6.406-1.462L353.118,53.82z M346.927,41.866
		c-0.043-3.612-1.462-4.558-3.226-4.558c-1.849,0-3.354,1.032-3.611,4.558H346.927z"/>
	<path d="M369.497,55.497l-0.43-2.322l-0.215-0.043c-1.634,1.591-3.784,2.881-7.224,2.881
		c-5.418,0-6.278-3.698-6.278-6.364c0-4.3,2.666-6.278,8.041-6.622l4.944-0.344v-2.365c0-2.021-0.215-3.397-2.881-3.397
		c-2.063,0-3.139,0.301-3.139,2.881l-6.062-0.516c0-5.805,5.289-6.622,9.244-6.622c6.536,0,9.159,1.763,9.159,7.783v10.449
		c0,0.688,0.043,0.774,0.688,0.86l2.063,0.344v3.397H369.497z M368.336,46.252l-2.924,0.215c-2.537,0.172-3.439,0.817-3.439,2.537
		c0,1.72,1.032,2.365,2.451,2.365c1.462,0,2.924-0.817,3.912-1.548V46.252z"/>
	<path d="M394.544,54.292c-1.849,0.903-4.558,1.72-7.009,1.72c-5.117,0-7.052-2.064-7.052-6.923V37.824
		c0-0.258,0-0.43-0.345-0.43h-3.01v-3.827c3.784-0.43,5.289-2.322,5.762-7.009h4.085v6.106c0,0.301,0,0.43,0.345,0.43h6.062v4.3
		h-6.407v10.277c0,2.537,0.603,3.526,2.925,3.526c1.203,0,2.45-0.301,3.482-0.688L394.544,54.292z"/>
	<path d="M396.269,55.497V52.1l2.192-0.301c0.603-0.086,0.688-0.215,0.688-0.86V38.297
		c0-0.473-0.129-0.774-0.56-0.903l-2.321-0.817l0.473-3.483h8.9v17.845c0,0.688,0.043,0.774,0.688,0.86l2.193,0.301v3.397H396.269z
		 M401.815,29.654c-2.451,0-3.87-1.419-3.87-3.87c0-2.451,1.419-3.784,3.87-3.784c2.493,0,3.913,1.333,3.913,3.784
		C405.729,28.235,404.309,29.654,401.815,29.654z"/>
	<path d="M417.665,55.497l-6.837-17.802c-0.215-0.516-0.387-0.602-0.903-0.731l-1.806-0.387l0.688-3.483h11.652v3.483
		l-2.752,0.344l4.386,12.255h0.301l4.559-12.255l-2.795-0.344l0.559-3.483h9.933v3.483l-1.548,0.258
		c-0.559,0.129-0.859,0.215-1.075,0.731l-6.837,17.931H417.665z"/>
	<path d="M435.466,56.013c-2.494,0-3.697-1.118-3.697-3.354c0-2.193,1.203-3.354,3.697-3.354
		c2.408,0,3.655,1.161,3.655,3.354S437.917,56.013,435.466,56.013z"/>
	<path d="M461.11,53.82c-2.666,1.29-5.59,2.193-8.814,2.193c-8.299,0-11.137-5.16-11.137-11.868
		c0-7.783,4.772-11.481,10.664-11.481c5.676,0,9.459,2.967,9.459,10.406c0,0.516-0.043,2.021-0.086,2.881h-13.157
		c0.215,3.053,1.548,5.074,5.074,5.074c1.677,0,3.482-0.387,6.406-1.462L461.11,53.82z M454.919,41.866
		c-0.043-3.612-1.462-4.558-3.226-4.558c-1.849,0-3.354,1.032-3.611,4.558H454.919z"/>
	<path d="M476.755,39.845l-0.431-2.236c-0.043-0.344-0.129-0.516-0.43-0.602c-0.559-0.172-1.591-0.344-2.752-0.344
		c-2.15,0-3.354,0.817-3.354,2.193c0,1.763,2.364,2.15,4.987,2.752c3.397,0.774,7.224,1.978,7.224,7.009
		c0,5.246-4.257,7.396-9.718,7.396c-3.913,0-7.739-1.032-8.514-1.548v-6.235l4.601,0.344l0.431,2.451
		c0.043,0.387,0.129,0.559,0.516,0.645c0.517,0.172,1.677,0.43,3.312,0.43c2.278,0,3.568-0.645,3.568-2.236
		c0-1.72-1.72-2.236-3.913-2.623c-3.611-0.645-8.342-1.419-8.342-7.052c0-5.332,4.559-7.525,9.503-7.525
		c3.397,0,6.708,0.774,7.912,1.247v6.235L476.755,39.845z"/>
</g>

<g id="svg-text">
	<path d="M135.176,52.151c-2.537,1.548-6.837,2.365-10.75,2.365c-10.707,0-15.093-6.235-15.093-16.211
		c0-9.159,5.289-15.996,15.996-15.996c3.569,0,7.396,0.903,9.761,2.451v8.428l-4.73-0.387l-0.688-4.214
		c-0.086-0.43-0.258-0.645-0.688-0.774c-0.946-0.301-2.408-0.516-3.827-0.516c-5.461,0-8.944,3.698-8.944,11.008
		c0,7.611,3.311,11.309,8.643,11.309c1.419,0,3.182-0.215,4.3-0.559c0.516-0.129,0.645-0.258,0.774-0.903l0.645-3.999h4.601V52.151z"/>
	<path d="M137.614,54v-3.483l1.935-0.258c0.602-0.086,0.688-0.215,0.688-0.86V36.8c0-0.473-0.129-0.774-0.559-0.903l-2.322-0.817
		l0.473-3.483h7.568l0.516,3.44h0.258c1.419-2.193,3.311-3.87,6.063-3.87c0.989,0,2.967,0.172,3.741,0.387v7.826l-5.16-0.172
		l-0.43-2.279c-0.086-0.387-0.215-0.473-0.559-0.473c-1.118,0-2.451,0.946-3.096,1.505v11.395c0,0.688,0.043,0.817,0.688,0.86
		l4.257,0.344V54H137.614z"/>
	<path d="M157.668,42.949c0-7.138,3.741-11.782,11.61-11.782c7.955,0,11.051,4.73,11.051,11.309c0,7.31-3.698,12.04-11.61,12.04
		C160.85,54.516,157.668,49.7,157.668,42.949z M173.535,42.691c0-5.074-1.548-6.88-4.343-6.88c-2.838,0-4.729,1.763-4.729,6.923
		c0,5.203,1.677,7.267,4.558,7.267C171.815,50.001,173.535,48.066,173.535,42.691z"/>
	<path d="M185.575,63.116v-3.483l3.354-0.387c0.559-0.043,0.817-0.344,1.075-0.946l1.849-4.085l-8.213-17.974
		c-0.172-0.516-0.387-0.602-0.903-0.731l-1.763-0.43l0.688-3.483h11.395v3.483l-2.709,0.344l4.773,11.352h0.301l4.558-11.352
		l-2.795-0.344l0.559-3.483h9.589v3.483l-1.376,0.258c-0.516,0.086-0.86,0.215-1.075,0.731l-9.46,23.134l4.472,0.473v3.44H185.575z"/>
	<path d="M224.313,54l-0.43-2.408l-0.301-0.043c-1.806,1.763-3.913,2.967-7.052,2.967c-5.074,0-8.342-3.225-8.342-11.438
		c0-8.643,4.343-11.911,9.116-11.911c2.494,0,4.429,0.86,6.063,2.064v-6.536c0-0.43-0.172-0.731-0.559-0.86l-2.365-0.817l0.473-3.483
		h8.643v27.949c0,0.645,0.043,0.731,0.688,0.817l2.064,0.301V54H224.313z M223.109,37.445c-1.075-0.731-2.451-1.29-3.698-1.29
		c-3.182,0-4.429,2.967-4.429,6.794c0,4.171,1.204,6.493,3.913,6.493c1.462,0,3.053-0.86,4.214-1.849V37.445z"/>
	<path d="M233.201,42.949c0-7.138,3.741-11.782,11.61-11.782c7.955,0,11.051,4.73,11.051,11.309c0,7.31-3.698,12.04-11.61,12.04
		C236.383,54.516,233.201,49.7,233.201,42.949z M249.068,42.691c0-5.074-1.548-6.88-4.343-6.88c-2.838,0-4.729,1.763-4.729,6.923
		c0,5.203,1.677,7.267,4.558,7.267C247.348,50.001,249.068,48.066,249.068,42.691z"/>
	<path d="M273.165,54V40.111c0-2.064-0.129-3.784-2.279-3.784c-1.591,0-3.569,0.903-4.472,1.591v11.523
		c0,0.688,0.043,0.774,0.688,0.86l2.064,0.301V54h-11.868v-3.44l1.935-0.258c0.602-0.086,0.688-0.215,0.688-0.86V36.8
		c0-0.473-0.129-0.774-0.559-0.903l-2.322-0.817l0.516-3.483h7.525l0.344,2.236l0.172,0.086c2.15-1.591,4.644-2.752,7.568-2.752
		c4.687,0,6.493,2.58,6.493,7.31v10.965c0,0.688,0.043,0.774,0.688,0.86l2.15,0.301V54H273.165z"/>
	<path d="M309.336,52.151c-2.537,1.548-6.837,2.365-10.75,2.365c-10.707,0-15.093-6.235-15.093-16.211
		c0-9.159,5.289-15.996,15.996-15.996c3.569,0,7.396,0.903,9.761,2.451v8.428l-4.73-0.387l-0.688-4.214
		c-0.086-0.43-0.258-0.645-0.688-0.774c-0.945-0.301-2.408-0.516-3.827-0.516c-5.461,0-8.944,3.698-8.944,11.008
		c0,7.611,3.311,11.309,8.643,11.309c1.419,0,3.183-0.215,4.3-0.559c0.517-0.129,0.646-0.258,0.774-0.903l0.645-3.999h4.602V52.151z"/>
	<path d="M311.774,54v-3.483l1.935-0.258c0.603-0.086,0.688-0.215,0.688-0.86V36.8c0-0.473-0.129-0.774-0.56-0.903l-2.321-0.817
		l0.473-3.483h7.567l0.517,3.44h0.258c1.419-2.193,3.311-3.87,6.062-3.87c0.989,0,2.968,0.172,3.741,0.387v7.826l-5.16-0.172
		l-0.43-2.279c-0.086-0.387-0.215-0.473-0.559-0.473c-1.118,0-2.451,0.946-3.097,1.505v11.395c0,0.688,0.043,0.817,0.688,0.86
		l4.257,0.344V54H311.774z"/>
	<path d="M351.806,52.323c-2.666,1.29-5.59,2.193-8.814,2.193c-8.299,0-11.137-5.16-11.137-11.868
		c0-7.783,4.772-11.481,10.664-11.481c5.676,0,9.459,2.967,9.459,10.406c0,0.516-0.043,2.021-0.086,2.881h-13.157
		c0.215,3.053,1.548,5.074,5.074,5.074c1.677,0,3.482-0.387,6.406-1.462L351.806,52.323z M345.614,40.369
		c-0.043-3.612-1.462-4.558-3.226-4.558c-1.849,0-3.354,1.032-3.611,4.558H345.614z"/>
	<path d="M368.185,54l-0.43-2.322l-0.215-0.043c-1.634,1.591-3.784,2.881-7.224,2.881c-5.418,0-6.278-3.698-6.278-6.364
		c0-4.3,2.666-6.278,8.041-6.622l4.944-0.344v-2.365c0-2.021-0.215-3.397-2.881-3.397c-2.063,0-3.139,0.301-3.139,2.881l-6.062-0.516
		c0-5.805,5.289-6.622,9.244-6.622c6.536,0,9.159,1.763,9.159,7.783v10.449c0,0.688,0.043,0.774,0.688,0.86l2.063,0.344V54H368.185z
		 M367.023,44.755L364.1,44.97c-2.537,0.172-3.439,0.817-3.439,2.537c0,1.72,1.032,2.365,2.451,2.365
		c1.462,0,2.924-0.817,3.912-1.548V44.755z"/>
	<path d="M393.231,52.796c-1.849,0.903-4.558,1.72-7.009,1.72c-5.117,0-7.052-2.064-7.052-6.923V36.327c0-0.258,0-0.43-0.345-0.43
		h-3.01V32.07c3.784-0.43,5.289-2.322,5.762-7.009h4.085v6.106c0,0.301,0,0.43,0.345,0.43h6.062v4.3h-6.407v10.277
		c0,2.537,0.603,3.526,2.925,3.526c1.203,0,2.45-0.301,3.482-0.688L393.231,52.796z"/>
	<path d="M394.956,54v-3.397l2.192-0.301c0.603-0.086,0.688-0.215,0.688-0.86V36.8c0-0.473-0.129-0.774-0.56-0.903l-2.321-0.817
		l0.473-3.483h8.9v17.845c0,0.688,0.043,0.774,0.688,0.86l2.193,0.301V54H394.956z M400.503,28.157c-2.451,0-3.87-1.419-3.87-3.87
		c0-2.451,1.419-3.784,3.87-3.784c2.493,0,3.913,1.333,3.913,3.784C404.416,26.738,402.996,28.157,400.503,28.157z"/>
	<path d="M416.353,54l-6.837-17.802c-0.215-0.516-0.387-0.602-0.903-0.731l-1.806-0.387l0.688-3.483h11.652v3.483l-2.752,0.344
		l4.386,12.255h0.301l4.559-12.255l-2.795-0.344l0.559-3.483h9.933v3.483l-1.548,0.258c-0.559,0.129-0.859,0.215-1.075,0.731
		L423.877,54H416.353z"/>
	<path d="M434.153,54.516c-2.494,0-3.697-1.118-3.697-3.354c0-2.193,1.203-3.354,3.697-3.354c2.408,0,3.655,1.161,3.655,3.354
		S436.604,54.516,434.153,54.516z"/>
	<path d="M459.798,52.323c-2.666,1.29-5.59,2.193-8.814,2.193c-8.299,0-11.137-5.16-11.137-11.868
		c0-7.783,4.772-11.481,10.664-11.481c5.676,0,9.459,2.967,9.459,10.406c0,0.516-0.043,2.021-0.086,2.881h-13.157
		c0.215,3.053,1.548,5.074,5.074,5.074c1.677,0,3.482-0.387,6.406-1.462L459.798,52.323z M453.606,40.369
		c-0.043-3.612-1.462-4.558-3.226-4.558c-1.849,0-3.354,1.032-3.611,4.558H453.606z"/>
	<path d="M475.442,38.348l-0.431-2.236c-0.043-0.344-0.129-0.516-0.43-0.602c-0.559-0.172-1.591-0.344-2.752-0.344
		c-2.15,0-3.354,0.817-3.354,2.193c0,1.763,2.364,2.15,4.987,2.752c3.397,0.774,7.224,1.978,7.224,7.009
		c0,5.246-4.257,7.396-9.718,7.396c-3.913,0-7.739-1.032-8.514-1.548v-6.235l4.601,0.344l0.431,2.451
		c0.043,0.387,0.129,0.559,0.516,0.645c0.517,0.172,1.677,0.43,3.312,0.43c2.278,0,3.568-0.645,3.568-2.236
		c0-1.72-1.72-2.236-3.913-2.623c-3.611-0.645-8.342-1.419-8.342-7.052c0-5.332,4.559-7.525,9.503-7.525
		c3.397,0,6.708,0.774,7.912,1.247v6.235L475.442,38.348z"/>
</g>

<path d="M79,79H0V0h79V79z M38,45h-5.327l-0.705,4.489c-0.141,0.705-0.282,0.906-0.846,1.046c-1.222,0.376-3.149,0.641-4.7,0.641
	c-5.828,0-9.446-4.027-9.446-12.345c0-7.99,3.807-12.024,9.775-12.024c1.551,0,3.148,0.238,4.183,0.567
	c0.47,0.141,0.658,0.378,0.752,0.848l0.948,4.607L38,33.253v-9.211c-3-1.692-6.963-2.679-10.864-2.679
	c-11.703,0-17.581,7.472-17.581,17.483c0,10.903,4.894,17.718,16.596,17.718c4.276,0,8.849-0.893,11.849-2.585V45z M69,45h-5.327
	l-0.705,4.489c-0.141,0.705-0.282,0.906-0.846,1.046c-1.222,0.376-3.149,0.641-4.7,0.641c-5.828,0-9.446-4.027-9.446-12.345
	c0-7.99,3.807-12.024,9.775-12.024c1.551,0,3.148,0.238,4.183,0.567c0.47,0.141,0.658,0.378,0.752,0.848l0.948,4.607L69,33.253
	v-9.211c-3-1.692-6.963-2.679-10.864-2.679c-11.703,0-17.581,7.472-17.581,17.483c0,10.903,4.894,17.718,16.596,17.718
	c4.276,0,8.849-0.893,11.849-2.585V45z"/>

</svg>
