<?xml version="1.0" encoding="utf-8"?>
<!DOCTYPE svg>
<svg version="1.1" baseProfile="full" xmlns="http://www.w3.org/2000/svg" xmlns:xlink="http://www.w3.org/1999/xlink"
	x="0px" y="0px" width="591px" height="96px" viewBox="0 0 591 96" enable-background="new 0 0 591 96" xml:space="preserve">

<g id="svg-text-shadow" fill="#ffffff" fill-opacity="0.5">
	<path d="M159.67,65.417c-3.16,1.928-8.515,2.946-13.389,2.946c-13.335,0-18.797-7.765-18.797-20.19
		c0-11.407,6.587-19.922,19.922-19.922c4.445,0,9.211,1.125,12.157,3.053v10.497l-5.891-0.482l-0.856-5.249
		c-0.108-0.536-0.322-0.803-0.857-0.964c-1.178-0.374-2.999-0.643-4.766-0.643c-6.802,0-11.14,4.606-11.14,13.71
		c0,9.479,4.124,14.085,10.764,14.085c1.768,0,3.963-0.269,5.356-0.696c0.643-0.16,0.803-0.322,0.964-1.125l0.804-4.98h5.73V65.417z"/>
	<path d="M162.707,67.72v-4.338l2.41-0.321c0.75-0.107,0.857-0.268,0.857-1.072V46.298
		c0-0.589-0.161-0.964-0.696-1.125l-2.892-1.018l0.59-4.338h9.425l0.643,4.285h0.321c1.768-2.732,4.124-4.82,7.551-4.82
		c1.231,0,3.695,0.214,4.659,0.482v9.747l-6.426-0.214l-0.536-2.838c-0.107-0.481-0.268-0.589-0.697-0.589
		c-1.392,0-3.052,1.178-3.855,1.875v14.191c0,0.857,0.054,1.018,0.857,1.071l5.302,0.429v4.284H162.707z"/>
	<path d="M187.684,53.956c0-8.89,4.659-14.674,14.46-14.674c9.907,0,13.763,5.891,13.763,14.084
		c0,9.104-4.605,14.996-14.46,14.996C191.647,68.362,187.684,62.364,187.684,53.956z M207.446,53.635
		c0-6.319-1.928-8.568-5.409-8.568c-3.535,0-5.891,2.195-5.891,8.622c0,6.48,2.089,9.051,5.677,9.051
		C205.304,62.739,207.446,60.329,207.446,53.635z"/>
	<path d="M222.442,79.016v-4.28l4.177-0.481c0.696-0.053,1.018-0.429,1.338-1.179l2.303-5.088l-10.229-22.386
		c-0.214-0.643-0.482-0.75-1.125-0.91l-2.196-0.536l0.857-4.338h14.192v4.338l-3.374,0.429l5.945,14.139h0.375l5.677-14.139
		l-3.481-0.429l0.696-4.338h11.943v4.338l-1.714,0.322c-0.643,0.107-1.071,0.268-1.339,0.91l-11.782,28.813l5.57,0.588v4.227H222.442z"/>
	<path d="M270.689,67.72l-0.536-2.999l-0.375-0.054c-2.249,2.197-4.873,3.696-8.783,3.696
		c-6.319,0-10.39-4.017-10.39-14.246c0-10.765,5.41-14.834,11.354-14.834c3.106,0,5.517,1.071,7.551,2.571v-8.141
		c0-0.535-0.214-0.911-0.696-1.071l-2.945-1.018l0.589-4.338h10.764v34.811c0,0.803,0.054,0.91,0.857,1.018l2.571,0.375v4.231
		H270.689z M269.189,47.102c-1.339-0.911-3.053-1.607-4.606-1.607c-3.963,0-5.516,3.695-5.516,8.462c0,5.195,1.5,8.086,4.873,8.086
		c1.821,0,3.802-1.071,5.249-2.302V47.102z"/>
	<path d="M281.76,53.956c0-8.89,4.659-14.674,14.459-14.674c9.907,0,13.764,5.891,13.764,14.084
		c0,9.104-4.606,14.996-14.46,14.996C285.722,68.362,281.76,62.364,281.76,53.956z M301.521,53.635c0-6.319-1.929-8.568-5.41-8.568
		c-3.535,0-5.891,2.195-5.891,8.622c0,6.48,2.088,9.051,5.676,9.051C299.379,62.739,301.521,60.329,301.521,53.635z"/>
	<path d="M331.534,67.72V50.422c0-2.571-0.161-4.713-2.839-4.713c-1.981,0-4.444,1.125-5.569,1.981v14.353
		c0,0.857,0.054,0.964,0.855,1.071l2.571,0.375v4.231h-14.781v-4.284l2.41-0.322c0.75-0.107,0.857-0.268,0.857-1.071V46.298
		c0-0.589-0.161-0.964-0.696-1.125l-2.893-1.018l0.643-4.338h9.373l0.429,2.785l0.213,0.107c2.678-1.982,5.784-3.427,9.427-3.427
		c5.837,0,8.086,3.213,8.086,9.104v13.657c0,0.857,0.054,0.964,0.856,1.071l2.679,0.375v4.231H331.534z"/>
	<path d="M376.584,65.417c-3.16,1.928-8.515,2.946-13.39,2.946c-13.335,0-18.798-7.765-18.798-20.19
		c0-11.407,6.588-19.922,19.923-19.922c4.445,0,9.211,1.125,12.158,3.053v10.497l-5.893-0.482l-0.856-5.249
		c-0.106-0.536-0.319-0.803-0.856-0.964c-1.178-0.374-2.999-0.643-4.767-0.643c-6.802,0-11.14,4.606-11.14,13.71
		c0,9.479,4.124,14.085,10.764,14.085c1.769,0,3.965-0.269,5.356-0.696c0.643-0.16,0.804-0.322,0.964-1.125l0.803-4.98h5.731V65.417z"/>
	<path d="M379.621,67.72v-4.338l2.409-0.321c0.751-0.107,0.858-0.268,0.858-1.072V46.298
		c0-0.589-0.161-0.964-0.696-1.125l-2.893-1.018l0.589-4.338h9.425l0.644,4.285h0.321c1.767-2.732,4.124-4.82,7.551-4.82
		c1.232,0,3.696,0.214,4.659,0.482v9.747l-6.426-0.214l-0.535-2.838c-0.107-0.481-0.269-0.589-0.696-0.589
		c-1.393,0-3.053,1.178-3.857,1.875v14.191c0,0.857,0.054,1.018,0.858,1.071l5.302,0.429v4.284H379.621z"/>
	<path d="M429.479,65.631c-3.32,1.606-6.962,2.731-10.979,2.731c-10.335,0-13.87-6.427-13.87-14.78
		c0-9.694,5.944-14.3,13.281-14.3c7.07,0,11.78,3.695,11.78,12.96c0,0.643-0.052,2.517-0.106,3.588h-16.388
		c0.27,3.803,1.929,6.319,6.32,6.319c2.089,0,4.338-0.481,7.979-1.821L429.479,65.631z M421.768,50.742
		c-0.052-4.498-1.82-5.676-4.017-5.676c-2.303,0-4.177,1.285-4.498,5.676H421.768z"/>
	<path d="M449.879,67.72l-0.535-2.892l-0.268-0.054c-2.034,1.981-4.714,3.588-8.997,3.588
		c-6.747,0-7.819-4.606-7.819-7.926c0-5.356,3.321-7.82,10.016-8.248l6.157-0.429v-2.945c0-2.517-0.268-4.231-3.587-4.231
		c-2.57,0-3.91,0.375-3.91,3.588l-7.55-0.643c0-7.23,6.586-8.247,11.513-8.247c8.141,0,11.407,2.195,11.407,9.693v13.014
		c0,0.857,0.055,0.965,0.857,1.072l2.57,0.428v4.231H449.879z M448.433,56.206l-3.642,0.268c-3.16,0.214-4.284,1.017-4.284,3.16
		c0,2.142,1.285,2.945,3.054,2.945c1.82,0,3.641-1.018,4.872-1.928V56.206z"/>
	<path d="M481.074,66.22c-2.303,1.125-5.676,2.142-8.729,2.142c-6.373,0-8.783-2.57-8.783-8.622V45.708
		c0-0.321,0-0.535-0.428-0.535h-3.75v-4.767c4.714-0.535,6.588-2.892,7.177-8.729h5.088v7.604c0,0.375,0,0.535,0.43,0.535h7.551
		v5.356h-7.98v12.799c0,3.159,0.751,4.392,3.643,4.392c1.498,0,3.052-0.375,4.338-0.857L481.074,66.22z"/>
	<path d="M483.223,67.72v-4.231l2.731-0.375c0.749-0.107,0.856-0.268,0.856-1.071V46.298
		c0-0.589-0.16-0.964-0.697-1.125l-2.891-1.018l0.589-4.338h11.086v22.225c0,0.857,0.052,0.964,0.856,1.071l2.732,0.375v4.231
		H483.223z M490.131,35.533c-3.052,0-4.82-1.767-4.82-4.82S487.079,26,490.131,26c3.105,0,4.874,1.66,4.874,4.713
		S493.236,35.533,490.131,35.533z"/>
	<path d="M509.872,67.72l-8.517-22.172c-0.267-0.643-0.48-0.75-1.124-0.91l-2.249-0.482l0.857-4.338h14.513v4.338
		l-3.428,0.429l5.463,15.263h0.375l5.677-15.263l-3.48-0.429l0.695-4.338h12.372v4.338l-1.929,0.322
		c-0.696,0.16-1.07,0.268-1.339,0.91l-8.517,22.333H509.872z"/>
	<path d="M532.042,68.362c-3.106,0-4.604-1.393-4.604-4.178c0-2.73,1.498-4.177,4.604-4.177
		c2.999,0,4.553,1.446,4.553,4.177C536.595,66.917,535.096,68.362,532.042,68.362z"/>
	<path d="M563.982,65.631c-3.321,1.606-6.962,2.731-10.979,2.731c-10.336,0-13.87-6.427-13.87-14.78
		c0-9.694,5.943-14.3,13.281-14.3c7.069,0,11.781,3.695,11.781,12.96c0,0.643-0.054,2.517-0.106,3.588h-16.389
		c0.269,3.803,1.929,6.319,6.32,6.319c2.089,0,4.338-0.481,7.979-1.821L563.982,65.631z M556.271,50.742
		c-0.054-4.498-1.82-5.676-4.017-5.676c-2.304,0-4.177,1.285-4.498,5.676H556.271z"/>
	<path d="M583.467,48.226l-0.536-2.785c-0.054-0.428-0.16-0.643-0.535-0.749c-0.695-0.214-1.981-0.429-3.429-0.429
		c-2.677,0-4.176,1.017-4.176,2.731c0,2.195,2.944,2.678,6.212,3.428c4.231,0.963,8.997,2.463,8.997,8.729
		c0,6.534-5.302,9.211-12.104,9.211c-4.874,0-9.64-1.285-10.604-1.928v-7.765l5.729,0.428l0.537,3.053
		c0.053,0.482,0.16,0.696,0.642,0.804c0.645,0.214,2.089,0.535,4.125,0.535c2.838,0,4.444-0.803,4.444-2.785
		c0-2.143-2.142-2.785-4.874-3.267c-4.498-0.803-10.39-1.767-10.39-8.783c0-6.641,5.678-9.372,11.836-9.372
		c4.231,0,8.354,0.963,9.854,1.553v7.765L583.467,48.226z"/>
</g>

<g id="svg-text">
	<path d="M158.415,64.401c-3.16,1.928-8.515,2.946-13.389,2.946c-13.335,0-18.797-7.765-18.797-20.19
		c0-11.407,6.587-19.922,19.922-19.922c4.445,0,9.211,1.125,12.157,3.053v10.497l-5.891-0.482l-0.856-5.249
		c-0.108-0.536-0.322-0.803-0.857-0.964c-1.178-0.374-2.999-0.643-4.766-0.643c-6.802,0-11.14,4.606-11.14,13.71
		c0,9.479,4.124,14.085,10.764,14.085c1.768,0,3.963-0.269,5.356-0.696c0.643-0.16,0.803-0.322,0.964-1.125l0.804-4.98h5.73V64.401z"/>
	<path d="M161.452,66.704v-4.338l2.41-0.321c0.75-0.107,0.857-0.268,0.857-1.072V45.282c0-0.589-0.161-0.964-0.696-1.125
		l-2.892-1.018l0.59-4.338h9.425l0.643,4.285h0.321c1.768-2.732,4.124-4.82,7.551-4.82c1.231,0,3.695,0.214,4.659,0.482v9.747
		l-6.426-0.214l-0.536-2.838c-0.107-0.481-0.268-0.589-0.697-0.589c-1.392,0-3.052,1.178-3.855,1.875V60.92
		c0,0.857,0.054,1.018,0.857,1.071l5.302,0.429v4.284H161.452z"/>
	<path d="M186.429,52.94c0-8.89,4.659-14.674,14.46-14.674c9.907,0,13.763,5.891,13.763,14.084c0,9.104-4.605,14.996-14.46,14.996
		C190.393,67.347,186.429,61.349,186.429,52.94z M206.191,52.619c0-6.319-1.928-8.568-5.409-8.568c-3.535,0-5.891,2.195-5.891,8.622
		c0,6.48,2.089,9.051,5.677,9.051C204.049,61.724,206.191,59.313,206.191,52.619z"/>
	<path d="M221.187,78v-4.28l4.177-0.481c0.696-0.053,1.018-0.429,1.338-1.179l2.303-5.088l-10.229-22.386
		c-0.214-0.643-0.482-0.75-1.125-0.91l-2.196-0.536l0.857-4.338h14.192v4.338l-3.374,0.429l5.945,14.139h0.375l5.677-14.139
		l-3.481-0.429l0.696-4.338h11.943v4.338l-1.714,0.322c-0.643,0.107-1.071,0.268-1.339,0.91l-11.782,28.813l5.57,0.588V78H221.187z"/>
	<path d="M269.435,66.704l-0.536-2.999l-0.375-0.054c-2.249,2.197-4.873,3.696-8.783,3.696c-6.319,0-10.39-4.017-10.39-14.246
		c0-10.765,5.41-14.834,11.354-14.834c3.106,0,5.517,1.071,7.551,2.571v-8.141c0-0.535-0.214-0.911-0.696-1.071l-2.945-1.018
		l0.589-4.338h10.764v34.811c0,0.803,0.054,0.91,0.857,1.018l2.571,0.375v4.231H269.435z M267.935,46.086
		c-1.339-0.911-3.053-1.607-4.606-1.607c-3.963,0-5.516,3.695-5.516,8.462c0,5.195,1.5,8.086,4.873,8.086
		c1.821,0,3.802-1.071,5.249-2.302V46.086z"/>
	<path d="M280.505,52.94c0-8.89,4.659-14.674,14.459-14.674c9.907,0,13.764,5.891,13.764,14.084c0,9.104-4.606,14.996-14.46,14.996
		C284.467,67.347,280.505,61.349,280.505,52.94z M300.267,52.619c0-6.319-1.929-8.568-5.41-8.568c-3.535,0-5.891,2.195-5.891,8.622
		c0,6.48,2.088,9.051,5.676,9.051C298.124,61.724,300.267,59.313,300.267,52.619z"/>
	<path d="M330.279,66.704V49.406c0-2.571-0.161-4.713-2.839-4.713c-1.981,0-4.444,1.125-5.569,1.981v14.353
		c0,0.857,0.054,0.964,0.855,1.071l2.571,0.375v4.231h-14.781V62.42l2.41-0.322c0.75-0.107,0.857-0.268,0.857-1.071V45.282
		c0-0.589-0.161-0.964-0.696-1.125l-2.893-1.018l0.643-4.338h9.373l0.428,2.785l0.214,0.107c2.677-1.982,5.784-3.427,9.426-3.427
		c5.837,0,8.086,3.213,8.086,9.104v13.657c0,0.857,0.054,0.964,0.856,1.071l2.679,0.375v4.231H330.279z"/>
	<path d="M375.329,64.401c-3.16,1.928-8.515,2.946-13.39,2.946c-13.335,0-18.798-7.765-18.798-20.19
		c0-11.407,6.588-19.922,19.923-19.922c4.445,0,9.211,1.125,12.158,3.053v10.497l-5.893-0.482l-0.856-5.249
		c-0.106-0.536-0.319-0.803-0.856-0.964c-1.178-0.374-2.999-0.643-4.767-0.643c-6.802,0-11.14,4.606-11.14,13.71
		c0,9.479,4.124,14.085,10.764,14.085c1.769,0,3.965-0.269,5.356-0.696c0.643-0.16,0.804-0.322,0.964-1.125l0.803-4.98h5.731V64.401z"/>
	<path d="M378.366,66.704v-4.338l2.409-0.321c0.751-0.107,0.858-0.268,0.858-1.072V45.282c0-0.589-0.161-0.964-0.696-1.125
		l-2.893-1.018l0.589-4.338h9.425l0.644,4.285h0.321c1.767-2.732,4.124-4.82,7.551-4.82c1.232,0,3.696,0.214,4.659,0.482v9.747
		l-6.426-0.214l-0.535-2.838c-0.107-0.481-0.269-0.589-0.696-0.589c-1.393,0-3.053,1.178-3.857,1.875V60.92
		c0,0.857,0.054,1.018,0.858,1.071l5.302,0.429v4.284H378.366z"/>
	<path d="M428.225,64.616c-3.32,1.606-6.962,2.731-10.979,2.731c-10.335,0-13.87-6.427-13.87-14.78c0-9.694,5.944-14.3,13.281-14.3
		c7.07,0,11.78,3.695,11.78,12.96c0,0.643-0.052,2.517-0.106,3.588h-16.388c0.27,3.803,1.929,6.319,6.32,6.319
		c2.089,0,4.338-0.481,7.979-1.821L428.225,64.616z M420.513,49.727c-0.052-4.498-1.82-5.676-4.017-5.676
		c-2.303,0-4.177,1.285-4.498,5.676H420.513z"/>
	<path d="M448.624,66.704l-0.535-2.892l-0.268-0.054c-2.034,1.981-4.714,3.588-8.997,3.588c-6.747,0-7.819-4.606-7.819-7.926
		c0-5.356,3.321-7.82,10.016-8.248l6.157-0.429v-2.945c0-2.517-0.268-4.231-3.587-4.231c-2.57,0-3.91,0.375-3.91,3.588l-7.55-0.643
		c0-7.23,6.586-8.247,11.513-8.247c8.141,0,11.407,2.195,11.407,9.693v13.014c0,0.857,0.055,0.965,0.857,1.072l2.57,0.428v4.231
		H448.624z M447.178,55.19l-3.642,0.268c-3.16,0.214-4.284,1.017-4.284,3.16c0,2.142,1.285,2.945,3.054,2.945
		c1.82,0,3.641-1.018,4.872-1.928V55.19z"/>
	<path d="M479.819,65.205c-2.303,1.125-5.676,2.142-8.729,2.142c-6.373,0-8.783-2.57-8.783-8.622V44.693c0-0.321,0-0.535-0.428-0.535
		h-3.75v-4.767c4.714-0.535,6.588-2.892,7.177-8.729h5.088v7.604c0,0.375,0,0.535,0.43,0.535h7.551v5.356h-7.98v12.799
		c0,3.159,0.751,4.392,3.643,4.392c1.498,0,3.052-0.375,4.338-0.857L479.819,65.205z"/>
	<path d="M481.968,66.704v-4.231l2.731-0.375c0.749-0.107,0.856-0.268,0.856-1.071V45.282c0-0.589-0.16-0.964-0.697-1.125
		l-2.891-1.018l0.589-4.338h11.086v22.225c0,0.857,0.052,0.964,0.856,1.071l2.732,0.375v4.231H481.968z M488.876,34.517
		c-3.052,0-4.82-1.767-4.82-4.82s1.769-4.713,4.82-4.713c3.105,0,4.874,1.66,4.874,4.713S491.981,34.517,488.876,34.517z"/>
	<path d="M508.617,66.704l-8.517-22.172c-0.267-0.643-0.48-0.75-1.124-0.91l-2.249-0.482l0.857-4.338h14.513v4.338l-3.428,0.429
		l5.463,15.263h0.375l5.677-15.263l-3.48-0.429l0.695-4.338h12.372v4.338l-1.929,0.322c-0.696,0.16-1.07,0.268-1.339,0.91
		l-8.517,22.333H508.617z"/>
	<path d="M530.787,67.347c-3.106,0-4.604-1.393-4.604-4.178c0-2.73,1.498-4.177,4.604-4.177c2.999,0,4.553,1.446,4.553,4.177
		C535.34,65.901,533.841,67.347,530.787,67.347z"/>
	<path d="M562.728,64.616c-3.321,1.606-6.962,2.731-10.979,2.731c-10.336,0-13.87-6.427-13.87-14.78c0-9.694,5.943-14.3,13.281-14.3
		c7.069,0,11.781,3.695,11.781,12.96c0,0.643-0.054,2.517-0.106,3.588h-16.389c0.269,3.803,1.929,6.319,6.32,6.319
		c2.089,0,4.338-0.481,7.979-1.821L562.728,64.616z M555.016,49.727c-0.054-4.498-1.82-5.676-4.017-5.676
		c-2.304,0-4.177,1.285-4.498,5.676H555.016z"/>
	<path d="M582.212,47.21l-0.536-2.785c-0.054-0.428-0.16-0.643-0.535-0.749c-0.695-0.214-1.981-0.429-3.429-0.429
		c-2.677,0-4.176,1.017-4.176,2.731c0,2.195,2.944,2.678,6.212,3.428c4.231,0.963,8.997,2.463,8.997,8.729
		c0,6.534-5.302,9.211-12.104,9.211c-4.874,0-9.64-1.285-10.604-1.928v-7.765l5.729,0.428l0.537,3.053
		c0.053,0.482,0.16,0.696,0.642,0.804c0.645,0.214,2.089,0.535,4.125,0.535c2.838,0,4.444-0.803,4.444-2.785
		c0-2.143-2.142-2.785-4.874-3.267c-4.498-0.803-10.39-1.767-10.39-8.783c0-6.641,5.678-9.372,11.836-9.372
		c4.231,0,8.354,0.963,9.854,1.553v7.765L582.212,47.21z"/>
</g>

<path d="M96,96H0V0h96V96z M46,55h-6.186l-0.859,5.388c-0.172,0.859-0.344,1.062-1.031,1.234c-1.489,0.458-3.837,0.76-5.727,0.76
	c-7.101,0-11.511-4.917-11.511-15.054c0-9.736,4.639-14.657,11.912-14.657c1.89,0,3.837,0.288,5.097,0.688
	c0.573,0.172,0.802,0.459,0.917,1.032l1.002,5.613L46,40.521V29.296c-3-2.062-8.333-3.264-13.086-3.264
	c-14.261,0-21.347,9.105-21.347,21.304c0,13.286,5.848,21.59,20.108,21.59c5.211,0,11.325-1.088,14.325-3.15V55z M84,55h-6.411
	l-0.858,5.388c-0.172,0.859-0.344,1.062-1.031,1.234c-1.489,0.458-3.837,0.76-5.727,0.76c-7.102,0-11.511-4.917-11.511-15.054
	c0-9.736,4.639-14.657,11.912-14.657c1.89,0,3.836,0.288,5.097,0.688c0.572,0.172,0.802,0.459,0.917,1.032l1.115,5.613L84,40.521
	V29.296c-4-2.062-8.445-3.264-13.198-3.264c-14.261,0-21.404,9.105-21.404,21.304c0,13.286,5.933,21.59,20.193,21.59
	c5.211,0,10.409-1.088,14.409-3.15V55z"/>

</svg>
